<?xml version="1.0" encoding="UTF-8"?>
<svg id="_图层_1" data-name="图层 1" xmlns="http://www.w3.org/2000/svg" viewBox="0 0 259.9 39">
  <defs>
    <style>
      .cls-1 {
        fill: #191919;
      }

      .cls-1, .cls-2 {
        fill-rule: evenodd;
      }

      .cls-3 {
        fill: #99f;
      }

      .cls-2, .cls-4 {
        fill: #666;
      }
    </style>
  </defs>
  <path class="cls-2" d="M259.9,36.4V10.1h-3.3v4.8c-1.3-1.8-2.9-3.2-4.6-4.1-1.8-.9-3.7-1.4-5.9-1.4-3.7,0-6.9,1.3-9.6,4-2.7,2.7-4,5.9-4,9.7s1.4,7.2,4,9.9c2.6,2.7,5.8,4.1,9.5,4.1,2.1,0,4-.4,5.8-1.3,1.8-.9,3.4-2.2,4.8-3.9v4.5h3.3Zm-18.7-22.3c1.6-.9,3.3-1.4,5.2-1.4,2.9,0,5.4,1,7.4,3.1,2,2,3,4.6,3,7.6,0,2-.4,3.8-1.3,5.4s-2.1,2.9-3.8,3.8c-1.7,.9-3.4,1.4-5.3,1.4s-3.6-.5-5.2-1.4c-1.6-1-2.9-2.3-3.8-4-.9-1.7-1.4-3.4-1.4-5.3s.5-3.6,1.4-5.3c.9-1.7,2.2-3,3.8-3.9Z"/>
  <path class="cls-4" d="M217.5,11.1h3.5v3.8c1-1.5,2.1-2.6,3.3-3.4,1.1-.7,2.3-1.1,3.6-1.1,.9,0,1.9,.3,3,.9l-1.8,2.9c-.7-.3-1.3-.5-1.8-.5-1.1,0-2.2,.5-3.3,1.4-1,.9-1.8,2.4-2.4,4.3-.4,1.5-.6,4.5-.6,9.1v8.9h-3.5V11.1Z"/>
  <path class="cls-2" d="M185.2,.4V36.8h3.5v-4.8c1.3,1.8,2.9,3.2,4.6,4.1,1.7,.9,3.7,1.4,5.8,1.4,3.7,0,6.9-1.3,9.6-4,2.7-2.6,4-5.9,4-9.7s-1.4-7.1-4-9.8c-2.6-2.7-5.8-4.1-9.5-4.1-2.1,0-4,.4-5.8,1.3-1.8,.9-3.4,2.2-4.8,3.9V.4h-3.4Zm18.8,32.5c-1.6,.9-3.3,1.4-5.2,1.4-3,0-5.4-1.1-7.3-3.1-2-2-3-4.6-3-7.6,0-2,.4-3.8,1.3-5.4,.9-1.6,2.1-2.9,3.8-3.8s3.4-1.4,5.3-1.4c1.8,0,3.5,.5,5.1,1.4,1.6,1,2.9,2.3,3.8,4,.9,1.6,1.4,3.4,1.4,5.3,0,1.8-.5,3.6-1.4,5.3-.9,1.7-2.2,3-3.8,3.9Z"/>
  <path class="cls-2" d="M177.9,29l-2.9-1.5c-1.1,1.7-2,3-2.8,3.8-.9,.8-1.9,1.4-3.2,1.9-1.3,.5-2.6,.7-3.9,.7-2.8,0-5.1-.9-7-2.9-1.9-1.9-2.8-4.4-2.9-7.5h23.7c0-3.6-1-6.6-2.9-9-2.7-3.4-6.3-5.1-10.8-5.1s-7.8,1.7-10.4,5c-2.1,2.6-3.1,5.6-3.1,8.9,0,3.5,1.2,6.7,3.6,9.5,2.4,2.8,5.8,4.2,10.1,4.2,1.9,0,3.7-.3,5.2-.9,1.5-.6,2.9-1.5,4.1-2.6,1.2-1.2,2.3-2.7,3.2-4.5Zm-4.9-12.7c.9,1.1,1.5,2.5,2,4.3h-19.7c.7-2.4,1.7-4.2,3.1-5.4,1.9-1.7,4.1-2.5,6.7-2.5,1.6,0,3.1,.3,4.5,1,1.4,.6,2.5,1.5,3.4,2.6Z"/>
  <path class="cls-4" d="M144.5,6.8l-2.8,2.6c-2-2-4.2-3.4-6.5-4.4-2.4-1-4.7-1.5-6.9-1.5-2.8,0-5.4,.7-8,2.1-2.5,1.4-4.5,3.2-5.9,5.6-1.4,2.3-2.1,4.8-2.1,7.4s.7,5.2,2.2,7.6c1.4,2.4,3.4,4.3,6,5.7,2.5,1.4,5.3,2.1,8.3,2.1,3.7,0,6.8-1,9.3-3.1,2.5-2.1,4-4.7,4.5-8h-11.3v-3.5h15.3c0,5.5-1.7,9.9-4.9,13.1-3.2,3.2-7.6,4.9-13,4.9-6.6,0-11.8-2.2-15.6-6.7-3-3.5-4.4-7.4-4.4-12,0-3.4,.8-6.5,2.5-9.4,1.7-2.9,4-5.2,7-6.8s6.3-2.5,10-2.5c3,0,5.9,.5,8.5,1.6,2.6,1.1,5.2,2.8,7.8,5.2Z"/>
  <path class="cls-2" d="M99.9,16.6c-1.5-2-4-3.2-7.2-3.4,.1-.3,.1-.6,.1-.9,0-.6-.2-1.2-.4-1.7,4.3,.1,8,2,10,5-1,0-1.8,.4-2.5,1Zm-13.9-1.8c-.6-.7-1-1.6-1-2.5v-.1c-2.8,1.3-5.2,3.4-7,5.9,.9,.3,1.7,1,2.2,1.8,.1-.2,.2-.4,.4-.6,1.2-1.7,2.9-3.2,5-4.3,.06-.06,.12-.09,.21-.12,.05-.02,.11-.04,.19-.08Zm-7.8,10.7c-.4,.1-.9,.2-1.4,.2s-1-.1-1.4-.3c-.1,1.8,.1,3.5,1,5.4,.5,1.1,1.2,2,2,2.8,.4-.9,1-1.6,1.9-2-.5-.6-.9-1.2-1.3-1.9-.6-1.3-.9-2.8-.8-4.2Zm8.1,9c-.1,0-.18-.02-.25-.05-.08-.02-.15-.05-.25-.05,0,.09,.02,.18,.04,.28,.03,.12,.06,.26,.06,.42,0,.7-.2,1.4-.6,2,2.8,.4,6,0,9-1.3-.6-.6-1-1.5-1.1-2.4-2.3,1-4.8,1.4-6.9,1.1Zm15.2-11.3c.3,.1,.6,.2,1,.2,.6,0,1.2-.2,1.7-.4-.2,2.1-1,4.6-2.7,7-.15,.2-.33,.4-.5,.6-.18,.2-.35,.4-.5,.6-.4-.8-1.1-1.5-2-1.8,.1-.1,.2-.23,.3-.35,.1-.12,.2-.25,.3-.35,1.4-1.9,2.2-3.8,2.4-5.5Z"/>
  <path class="cls-1" d="M72.9,21.8c0-2.2,1.7-3.9,3.9-3.9s3.9,1.7,3.9,3.9-1.7,3.9-3.9,3.9-3.9-1.7-3.9-3.9Zm1.2,0c0,1.5,1.2,2.7,2.7,2.7s2.7-1.2,2.7-2.7-1.2-2.7-2.7-2.7-2.7,1.2-2.7,2.7Z"/>
  <circle class="cls-3" cx="76.8" cy="21.8" r="2.7"/>
  <path class="cls-1" d="M78.1,35.1c0-2.2,1.7-3.9,3.9-3.9s3.9,1.7,3.9,3.9-1.7,3.9-3.9,3.9-3.9-1.7-3.9-3.9Zm1.2,0c0,1.5,1.2,2.7,2.7,2.7s2.7-1.2,2.7-2.7-1.2-2.7-2.7-2.7-2.7,1.2-2.7,2.7Z"/>
  <circle class="cls-3" cx="82" cy="35.1" r="2.7"/>
  <path class="cls-1" d="M85,12.3c0-2.2,1.7-3.9,3.9-3.9s3.9,1.7,3.9,3.9-1.7,3.9-3.9,3.9-3.9-1.7-3.9-3.9Zm1.2,0c0,1.5,1.2,2.7,2.7,2.7s2.7-1.2,2.7-2.7-1.2-2.7-2.7-2.7-2.7,1.2-2.7,2.7Z"/>
  <circle class="cls-3" cx="88.9" cy="12.3" r="2.7"/>
  <path class="cls-1" d="M98.6,19.5c0-2.2,1.7-3.9,3.9-3.9s3.9,1.7,3.9,3.9-1.7,3.9-3.9,3.9-3.9-1.7-3.9-3.9Zm1.2,0c0,1.5,1.2,2.7,2.7,2.7s2.7-1.2,2.7-2.7-1.2-2.7-2.7-2.7-2.7,1.2-2.7,2.7Z"/>
  <circle class="cls-3" cx="102.5" cy="19.5" r="2.7"/>
  <path class="cls-1" d="M93.2,33c0-2.2,1.7-3.9,3.9-3.9s3.9,1.7,3.9,3.9-1.7,3.9-3.9,3.9-3.9-1.7-3.9-3.9Zm1.2,0c0,1.5,1.2,2.7,2.7,2.7s2.7-1.2,2.7-2.7-1.2-2.7-2.7-2.7-2.7,1.2-2.7,2.7Z"/>
  <circle class="cls-3" cx="97.1" cy="33" r="2.7"/>
  <path class="cls-2" d="M69.2,29l-2.9-1.5c-1,1.7-2,2.9-2.8,3.8-.9,.8-1.9,1.4-3.2,1.9s-2.6,.7-3.9,.7c-2.8,0-5.1-.9-7-2.9-1.9-1.9-2.8-4.4-2.9-7.5h23.7c0-3.6-1-6.6-2.9-9-2.7-3.4-6.3-5.1-10.8-5.1s-7.8,1.7-10.4,5c-2.1,2.6-3.1,5.6-3.1,8.9,0,3.5,1.2,6.7,3.6,9.5,2.4,2.8,5.8,4.2,10.1,4.2,1.9,0,3.7-.3,5.2-.9,1.5-.6,2.9-1.5,4.1-2.6,1.2-1.2,2.3-2.7,3.2-4.5Zm-4.9-12.9c.9,1.1,1.5,2.5,2,4.3h-19.7c.7-2.4,1.7-4.2,3.1-5.4,1.9-1.7,4.1-2.5,6.7-2.5,1.6,0,3.1,.3,4.5,1,1.4,.6,2.5,1.5,3.4,2.6Z"/>
  <path class="cls-4" d="M35.9,7.1l-2.8,2.6c-2-2-4.2-3.4-6.5-4.4-2.4-1-4.7-1.5-6.9-1.5-2.8,0-5.4,.7-8,2.1-2.5,1.4-4.5,3.2-5.9,5.6-1.4,2.3-2.1,4.8-2.1,7.4s.7,5.2,2.2,7.6c1.4,2.4,3.4,4.3,6,5.7,2.5,1.4,5.3,2.1,8.3,2.1,3.7,0,6.8-1,9.3-3.1,2.5-2.1,4-4.7,4.5-8h-11.4v-3.4h15.3c0,5.5-1.7,9.9-4.9,13.1-3.2,3.2-7.6,4.9-13,4.9-6.6,0-11.8-2.2-15.6-6.7C1.4,27.6,0,23.7,0,19.1c0-3.4,.8-6.5,2.5-9.4,1.7-2.9,4-5.2,7-6.8C12.5,1.3,15.8,.4,19.5,.4c3,0,5.9,.5,8.5,1.6,2.7,1,5.3,2.7,7.9,5.1Z"/>
</svg>